HIERARCHY
ROOT hip
{
  OFFSET 0 0 0
  CHANNELS 6 Xposition Yposition Zposition Zrotation Yrotation Xrotation
  JOINT abdomen
  {
    OFFSET 0 20.6881 -0.73152
    CHANNELS 3 Zrotation Xrotation Yrotation
    JOINT chest
    {
      OFFSET 0 11.7043 -0.48768
      CHANNELS 3 Zrotation Xrotation Yrotation
      JOINT neck
      {
        OFFSET 0 22.1894 -2.19456
        CHANNELS 3 Zrotation Xrotation Yrotation
        JOINT head
        {
          OFFSET -0.24384 7.07133 1.2192
          CHANNELS 3 Zrotation Xrotation Yrotation
          JOINT leftEye
          {
            OFFSET 4.14528 8.04674 8.04672
            CHANNELS 3 Zrotation Xrotation Yrotation
            End Site
            {
              OFFSET 1 0 0
            }
          }
          JOINT rightEye
          {
            OFFSET -3.6576 8.04674 8.04672
            CHANNELS 3 Zrotation Xrotation Yrotation
            End Site
            {
              OFFSET 1 0 0
            }
          }
        }
      }
      JOINT rCollar
      {
        OFFSET -2.68224 19.2634 -4.8768
        CHANNELS 3 Zrotation Xrotation Yrotation
        JOINT rShldr
        {
          OFFSET -8.77824 -1.95073 1.46304
          CHANNELS 3 Zrotation Xrotation Yrotation
          JOINT rForeArm
          {
            OFFSET -28.1742 -1.7115 0.48768
            CHANNELS 3 Zrotation Xrotation Yrotation
            JOINT rHand
            {
              OFFSET -22.5879 0.773209 7.07136
              CHANNELS 3 Zrotation Xrotation Yrotation
              JOINT rThumb1
              {
                OFFSET -1.2192 -0.487915 3.41376
                CHANNELS 3 Zrotation Xrotation Yrotation
                JOINT rThumb2
                {
                  OFFSET -3.37035 -0.52449 3.41376
                  CHANNELS 3 Zrotation Xrotation Yrotation
                  End Site
                  {
                    OFFSET -1.78271 -1.18214 1.43049
                  }
                }
              }
              JOINT rIndex1
              {
                OFFSET -7.75947 0.938293 5.60832
                CHANNELS 3 Zrotation Xrotation Yrotation
                JOINT rIndex2
                {
                  OFFSET -2.54057 -0.884171 1.56538
                  CHANNELS 3 Zrotation Xrotation Yrotation
                  End Site
                  {
                    OFFSET -1.62519 -0.234802 1.16502
                  }
                }
              }
              JOINT rMid1
              {
                OFFSET -8.24714 1.18213 3.41376
                CHANNELS 3 Zrotation Xrotation Yrotation
                JOINT rMid2
                {
                  OFFSET -3.10165 -0.590103 1.0647
                  CHANNELS 3 Zrotation Xrotation Yrotation
                  End Site
                  {
                    OFFSET -2.48547 -0.328903 0.83742
                  }
                }
              }
              JOINT rRing1
              {
                OFFSET -8.82822 0.546677 1.51678
                CHANNELS 3 Zrotation Xrotation Yrotation
                JOINT rRing2
                {
                  OFFSET -2.60934 -0.819778 -0.0198488
                  CHANNELS 3 Zrotation Xrotation Yrotation
                  End Site
                  {
                    OFFSET -2.33842 -0.294052 0.168128
                  }
                }
              }
              JOINT rPinky1
              {
                OFFSET -8.27202 -0.0477905 -0.4584
                CHANNELS 3 Zrotation Xrotation Yrotation
                JOINT rPinky2
                {
                  OFFSET -1.82734 -0.647385 -0.700984
                  CHANNELS 3 Zrotation Xrotation Yrotation
                  End Site
                  {
                    OFFSET -1.69225 -0.51767 -0.607171
                  }
                }
              }
            }
          }
        }
      }
      JOINT lCollar
      {
        OFFSET 2.68224 19.2634 -4.8768
        CHANNELS 3 Zrotation Xrotation Yrotation
        JOINT lShldr
        {
          OFFSET 8.77824 -1.95073 1.46304
          CHANNELS 3 Zrotation Xrotation Yrotation
          JOINT lForeArm
          {
            OFFSET 28.1742 -1.7115 0.48768
            CHANNELS 3 Zrotation Xrotation Yrotation
            JOINT lHand
            {
              OFFSET 22.5879 0.773209 7.07136
              CHANNELS 3 Zrotation Xrotation Yrotation
              JOINT lThumb1
              {
                OFFSET 1.2192 -0.487915 3.41376
                CHANNELS 3 Zrotation Xrotation Yrotation
                JOINT lThumb2
                {
                  OFFSET 3.37035 -0.52449 3.41376
                  CHANNELS 3 Zrotation Xrotation Yrotation
                  End Site
                  {
                    OFFSET 1.78271 -1.18214 1.43049
                  }
                }
              }
              JOINT lIndex1
              {
                OFFSET 7.75947 0.938293 5.60832
                CHANNELS 3 Zrotation Xrotation Yrotation
                JOINT lIndex2
                {
                  OFFSET 2.54057 -0.884171 1.56538
                  CHANNELS 3 Zrotation Xrotation Yrotation
                  End Site
                  {
                    OFFSET 1.62519 -0.234802 1.16502
                  }
                }
              }
              JOINT lMid1
              {
                OFFSET 8.24714 1.18213 3.41376
                CHANNELS 3 Zrotation Xrotation Yrotation
                JOINT lMid2
                {
                  OFFSET 3.10165 -0.590103 1.0647
                  CHANNELS 3 Zrotation Xrotation Yrotation
                  End Site
                  {
                    OFFSET 2.48547 -0.328903 0.83742
                  }
                }
              }
              JOINT lRing1
              {
                OFFSET 8.82822 0.546677 1.51678
                CHANNELS 3 Zrotation Xrotation Yrotation
                JOINT lRing2
                {
                  OFFSET 2.60934 -0.819778 -0.0198488
                  CHANNELS 3 Zrotation Xrotation Yrotation
                  End Site
                  {
                    OFFSET 2.33842 -0.294052 0.168128
                  }
                }
              }
              JOINT lPinky1
              {
                OFFSET 8.27202 -0.0477905 -0.4584
                CHANNELS 3 Zrotation Xrotation Yrotation
                JOINT lPinky2
                {
                  OFFSET 1.82734 -0.647385 -0.700984
                  CHANNELS 3 Zrotation Xrotation Yrotation
                  End Site
                  {
                    OFFSET 1.69225 -0.51767 -0.607171
                  }
                }
              }
            }
          }
        }
      }
    }
  }
  JOINT rButtock
  {
    OFFSET -8.77824 4.35084 1.2192
    CHANNELS 3 Zrotation Xrotation Yrotation
    JOINT rThigh
    {
      OFFSET 0 -1.70687 -2.19456
      CHANNELS 3 Zrotation Xrotation Yrotation
      JOINT rShin
      {
        OFFSET 0 -36.8199 0.73152
        CHANNELS 3 Zrotation Xrotation Yrotation
        JOINT rFoot
        {
          OFFSET 0.73152 -45.1104 -5.12064
          CHANNELS 3 Zrotation Xrotation Yrotation
          End Site
          {
            OFFSET -1.1221 -3.69964 12.103
          }
        }
      }
    }
  }
  JOINT lButtock
  {
    OFFSET 8.77824 4.35084 1.2192
    CHANNELS 3 Zrotation Xrotation Yrotation
    JOINT lThigh
    {
      OFFSET 0 -1.70687 -2.19456
      CHANNELS 3 Zrotation Xrotation Yrotation
      JOINT lShin
      {
        OFFSET 0 -36.8199 0.73152
        CHANNELS 3 Zrotation Xrotation Yrotation
        JOINT lFoot
        {
          OFFSET -0.73152 -45.1104 -5.12064
          CHANNELS 3 Zrotation Xrotation Yrotation
          End Site
          {
            OFFSET 1.1221 -3.69964 12.103
          }
        }
      }
    }
  }
}
MOTION
Frames:	6
Frame Time:	0.00833333
1.83754 84.1002 -47.8487 0.0 0.0 0.0 -1.51927 -0.00282943 -0.0413936 -0.418701 0.00102616 -0.0725115 5.66561e-14 1.59028e-15 2.73329e-16 1.70952e-13 9.54166e-15 7.3923e-16 -0.0 0.0 0.0 -0.0 0.0 0.0 2.87737e-14 3.49426e-18 2.48481e-16 6.00075e-13 4.5969e-16 5.36719e-15 1.03017e-11 -3.08613e-12 -4.77083e-14 1.18046e-10 3.12226e-12 7.4425e-13 2.78421e-10 7.40702e-14 1.4885e-12 4.808e-10 1.27222e-13 2.57545e-12 2.78421e-10 7.03698e-14 1.48532e-12 7.73091 5.47488 0.417314 2.78419e-10 7.32521e-14 1.49486e-12 2.90554 0.965183 0.102902 2.78421e-10 7.33515e-14 1.49804e-12 10.2786 0.731801 0.0259123 2.7841e-10 7.87187e-14 1.51394e-12 2.22167 -0.733487 -0.20892 2.84781e-14 8.15328e-18 -4.96962e-17 5.9855e-13 3.72721e-17 3.77691e-15 1.03212e-11 3.08951e-12 -3.18055e-14 1.18003e-10 -3.05194e-12 7.4743e-13 2.78382e-10 8.09536e-14 1.5044e-12 4.80769e-10 1.39944e-13 2.57784e-12 2.78382e-10 7.95139e-14 1.52031e-12 -7.73091 5.47488 -0.417314 2.78384e-10 8.00108e-14 1.49804e-12 -2.90554 0.965183 -0.102902 2.78381e-10 8.05078e-14 1.49725e-12 -10.2786 0.731801 -0.0259123 2.78392e-10 8.54774e-14 1.4885e-12 -2.22167 -0.733487 0.20892 -2.03217e-16 0.0 -3.88251e-19 -0.640539 -1.92323 -0.00643631 -0.00925466 -2.07856 -0.076428 -0.512152 3.99733 0.140312 2.03217e-16 0.0 3.88251e-19 -1.66974 -6.49782 0.154696 -0.00231058 6.208 -0.0679831 0.534047 0.285488 -0.0665682
0.381869 82.2775 -50.2148 -5.6794 -0.8541 8.0405 -0.543967 -2.67609 0.0983802 0.949103 1.24847 -0.109366 -0.0290152 -0.928129 -0.364834 -1.46682 5.96804 -0.437949 -0.0 0.0 0.0 -0.0 0.0 0.0 4.87085e-14 6.99547e-14 -1.58224e-14 21.1943 7.04184 1.12036 -3.75627 -1.62391 5.9537 0.00872887 -2.07301 -0.290654 1.34194e-11 6.65467e-10 -7.28576e-10 2.53096e-11 1.14802e-09 -1.26002e-09 1.34189e-11 6.65466e-10 -7.28582e-10 7.73091 5.47488 0.417314 1.3417e-11 6.65467e-10 -7.28571e-10 2.90554 0.965183 0.102902 1.34196e-11 6.65467e-10 -7.28569e-10 10.2786 0.731801 0.0259123 1.341e-11 6.65471e-10 -7.28554e-10 2.22167 -0.733487 -0.20892 4.84371e-14 6.99545e-14 -1.61365e-14 -22.1724 8.35245 -2.19573 3.2363 -1.31494 -5.20866 -0.000739994 0.603641 -0.0848192 -2.36316e-10 1.4734e-10 4.14792e-10 -4.0647e-10 2.57609e-10 7.17878e-10 -2.36315e-10 1.47341e-10 4.14806e-10 -7.73091 5.47488 -0.417314 -2.36319e-10 1.47336e-10 4.14782e-10 -2.90554 0.965183 -0.102902 -2.36317e-10 1.47341e-10 4.14786e-10 -10.2786 0.731801 -0.0259123 -2.36306e-10 1.47344e-10 4.14777e-10 -2.22167 -0.733487 0.20892 -2.03217e-16 0.0 -3.88251e-19 -0.0155561 -6.52761 0.670539 0.00847375 6.19694 0.0726273 -0.618007 -0.361583 -1.39303 2.03217e-16 0.0 3.88251e-19 1.22407 -10.1333 0.693773 -0.0121903 13.8455 -0.197917 0.534495 -4.48999 0.492614
0.339209 82.2803 -50.1995 -5.855 -0.8997 7.985 0.497744 -5.50099 0.245636 2.3975 2.56844 -0.148841 -0.0713095 -1.90888 -0.751329 -2.91265 12.2697 -0.919327 -0.0 0.0 0.0 -0.0 0.0 0.0 7.23338e-14 1.5056e-13 -3.45482e-14 43.2942 14.4757 2.36073 -7.36333 -3.28279 12.2644 -0.00496199 -4.25989 -0.598566 -2.85904e-10 1.4273e-09 -1.56002e-09 -4.89163e-10 2.4623e-09 -2.69794e-09 -2.85904e-10 1.42731e-09 -1.56003e-09 7.73091 5.47488 0.417314 -2.85907e-10 1.4273e-09 -1.56002e-09 2.90554 0.965183 0.102902 -2.85903e-10 1.4273e-09 -1.56001e-09 10.2786 0.731801 0.0259123 -2.85911e-10 1.42731e-09 -1.56e-09 2.22167 -0.733487 -0.20892 7.20849e-14 1.50554e-13 -3.48805e-14 -44.8843 17.1406 -4.67733 6.39901 -2.66883 -10.7241 0.000423181 1.24371 -0.17479 -8.15085e-10 3.15991e-10 8.83579e-10 -1.40412e-09 5.52456e-10 1.52921e-09 -8.15083e-10 3.15994e-10 8.83591e-10 -7.73091 5.47488 -0.417314 -8.15093e-10 3.15983e-10 8.83565e-10 -2.90554 0.965183 -0.102902 -8.15086e-10 3.15993e-10 8.83574e-10 -10.2786 0.731801 -0.0259123 -8.15076e-10 3.15995e-10 8.83565e-10 -2.22167 -0.733487 0.20892 -2.03217e-16 0.0 -3.88251e-19 0.765689 -11.3892 1.40829 -0.0207649 14.9453 0.237354 -0.985293 -4.96456 -3.03073 2.03217e-16 0.0 3.88251e-19 4.35911 -13.9719 1.27926 0.0180324 21.9184 -0.349062 0.637132 -9.53693 1.09391
0.328857 82.2805 -50.1996 -5.8969 -0.9108 7.9902 1.44607 -8.02244 0.381338 3.68954 3.74334 -0.183389 -0.122538 -2.78393 -1.09565 -4.11495 17.8998 -1.37321 -0.0 0.0 0.0 -0.0 0.0 0.0 8.8578e-14 2.09857e-13 -4.79642e-14 62.7069 21.092 3.57556 -10.2718 -4.66171 17.9152 -0.0372254 -6.21839 -0.87655 -5.16585e-10 1.99625e-09 -2.1887e-09 -8.85671e-10 3.4438e-09 -3.78521e-09 -5.16585e-10 1.99626e-09 -2.18872e-09 7.73091 5.47488 0.417314 -5.16588e-10 1.99626e-09 -2.1887e-09 2.90554 0.965183 0.102902 -5.16582e-10 1.99626e-09 -2.1887e-09 10.2786 0.731801 0.0259123 -5.16589e-10 1.99626e-09 -2.18869e-09 2.22167 -0.733487 -0.20892 8.83552e-14 2.09847e-13 -4.83101e-14 -64.4346 24.9024 -7.18868 9.0002 -3.81463 -15.6574 0.00314397 1.81091 -0.254571 -1.26571e-09 4.41858e-10 1.24137e-09 -2.18095e-09 7.72548e-10 2.14848e-09 -1.26571e-09 4.41863e-10 1.24138e-09 -7.73091 5.47488 -0.417314 -1.26572e-09 4.41848e-10 1.24135e-09 -2.90554 0.965183 -0.102902 -1.26571e-09 4.41861e-10 1.24136e-09 -10.2786 0.731801 -0.0259123 -1.2657e-09 4.41862e-10 1.24135e-09 -2.22167 -0.733487 0.20892 -2.03217e-16 0.0 -3.88251e-19 1.57197 -15.7278 2.08971 -0.0929642 22.7475 0.400518 -1.53474 -9.05205 -4.51529 2.03217e-16 0.0 3.88251e-19 7.22634 -17.3982 1.82496 0.0865125 29.1198 -0.505186 0.822065 -14.0358 1.65589
0.308165 82.2807 -50.1999 -5.9878 -0.9106 7.9928 2.13364 -9.78541 0.484939 4.58715 4.55554 -0.205342 -0.170984 -3.39518 -1.33344 -4.91596 21.8553 -1.70158 -0.0 0.0 0.0 -0.0 0.0 0.0 8.63692e-14 2.15886e-13 -4.81059e-14 76.0344 25.696 4.5243 -12.1315 -5.54118 21.8645 -0.0714922 -7.6065 -1.07541 -5.75659e-10 2.08299e-09 -2.31049e-09 -9.87271e-10 3.59333e-09 -3.99587e-09 -5.75657e-10 2.08299e-09 -2.31051e-09 7.73091 5.47488 0.417314 -5.75661e-10 2.08299e-09 -2.31049e-09 2.90554 0.965183 0.102902 -5.75654e-10 2.08299e-09 -2.31049e-09 10.2786 0.731801 0.0259123 -5.75662e-10 2.08299e-09 -2.31049e-09 2.22167 -0.733487 -0.20892 8.61817e-14 2.15874e-13 -4.84538e-14 -77.6043 30.2447 -9.20572 10.6941 -4.56424 -19.1053 0.00591757 2.19591 -0.308768 -1.39598e-09 4.60767e-10 1.32165e-09 -2.40572e-09 8.05752e-10 2.28757e-09 -1.39598e-09 4.60773e-10 1.32166e-09 -7.73091 5.47488 -0.417314 -1.396e-09 4.60755e-10 1.32164e-09 -2.90554 0.965183 -0.102902 -1.39598e-09 4.6077e-10 1.32165e-09 -10.2786 0.731801 -0.0259123 -1.39597e-09 4.60771e-10 1.32164e-09 -2.22167 -0.733487 0.20892 -2.03217e-16 0.0 -3.88251e-19 2.19652 -18.767 2.57041 -0.173413 28.1845 0.52948 -2.03561 -11.8799 -5.55091 2.03217e-16 0.0 3.88251e-19 9.27082 -19.7991 2.22716 0.162698 34.1433 -0.632438 1.00948 -17.1695 2.0766
0.272111 82.2786 -50.2066 -6.135 -0.9414 8.0294 2.45229 -10.4936 0.54191 4.92988 4.86088 -0.209466 -0.205892 -3.6368 -1.42172 -5.26221 23.4711 -1.81076 -0.0 0.0 0.0 -0.0 0.0 0.0 4.69436e-14 1.3227e-13 -2.66841e-14 81.1641 27.5043 4.94546 -12.8142 -5.85702 23.394 -0.0885742 -8.19703 -1.16054 -3.06302e-10 1.3388e-09 -1.5887e-09 -5.24103e-10 2.3093e-09 -2.74743e-09 -3.06296e-10 1.3388e-09 -1.58872e-09 7.73091 5.47488 0.417314 -3.06301e-10 1.3388e-09 -1.5887e-09 2.90554 0.965183 0.102902 -3.06293e-10 1.3388e-09 -1.5887e-09 10.2786 0.731801 0.0259123 -3.06304e-10 1.3388e-09 -1.58869e-09 2.22167 -0.733487 -0.20892 4.68117e-14 1.32261e-13 -2.70153e-14 -82.6691 32.3087 -10.0727 11.3298 -4.84531 -20.4554 0.00714745 2.3361 -0.328514 -9.7068e-10 3.53376e-10 9.6389e-10 -1.67299e-09 6.17295e-10 1.66853e-09 -9.70678e-10 3.53381e-10 9.639e-10 -7.73091 5.47488 -0.417314 -9.70693e-10 3.53365e-10 9.63874e-10 -2.90554 0.965183 -0.102902 -9.70683e-10 3.53378e-10 9.63888e-10 -10.2786 0.731801 -0.0259123 -9.70671e-10 3.53378e-10 9.63878e-10 -2.22167 -0.733487 0.20892 -2.03217e-16 0.0 -3.88251e-19 2.45234 -20.0002 2.71946 -0.212676 30.3087 0.58394 -2.23351 -12.9653 -5.88941 2.03217e-16 0.0 3.88251e-19 10.0966 -20.7761 2.40521 0.200368 36.1212 -0.688399 1.10474 -18.3982 2.26924
